<?xml version="1.0" encoding="UTF-8"?>
<svg id="Layer_1" xmlns="http://www.w3.org/2000/svg" version="1.1" viewBox="0 0 892.27 517.64">
  <!-- Generator: Adobe Illustrator 29.8.1, SVG Export Plug-In . SVG Version: 2.1.1 Build 2)  -->
  <defs>
    <style>
      .st0 {
        fill: #231f20;
      }
    </style>
  </defs>
  <path class="st0" d="M0,517.64h892.27V0H0v517.64ZM339.12,314.62c-8.32,12.27-17.61,24.25-23.6,37.92l-.54-3.04,16.04-51.89c1.86,2.96,8.81,14.47,8.1,17.01ZM866.6,7c-19.92,31.83-39.43,63.13-53.73,98.13-9.72,23.81-6.62,33.28-3.69,57.99,2.48,20.93,6.56,41.74,9.3,62.63,2.31,3.43,34.56-1.51,40.52-1.06-.56,1.53-3.51,2.69-4.98,3.5-5.6,3.1-31.5,12.94-32.8,17.16-1.07,3.51,3.82,26.19,4.64,31.94,2.87,20.06,4.37,43.19,9.44,62.49,9,34.26,23.39,73.99,34.66,108.2,5.59,16.97,12.13,33.57,17.99,50.43l-37.54-63.85c-17.47-30.68-37.28-58.78-66.35-79.51,25.77,1.15,22.81-19.25,20.97-37.95-1.98-20.1-7.37-40.21-7.98-60.45l-38.53,5.94-9.44,64.99-9.84-17.62-8.09-19.95c8.18-44.52,15.99-89.08,22.98-133.82,1.44-4.83-14.37-16.49-13.96-18.78L867.51,3.9c1.6.92-.37,2.24-.9,3.09ZM665.21,151.27c1.61-23.28,7.07-49.43,9.85-73.07,1.66-14.06,2.77-28.24,4.13-42.33,1.74-.24.95,2.27.99,3.48,1.01,27.43,3.7,55.54,6,82.93.88,10.44,3.36,21.72,3.98,31.98.96,15.82-1.8,31.62-.98,47.44l52.93-120.87c-5.53,33.23-14.82,65.7-25.95,97.42-4.53,12.93-10.91,26.16-15.02,38.93-.83,2.58-2.15,5.06-1.95,7.89.36,5.19,10.91,27,13.78,33.26,15.06,32.97,31.61,65.35,46.31,98.55,5.61,12.68,11.38,25.51,15.8,38.63l-39.93-46.94-68.94,94.89c-.12-2.14.76-4.04,1.51-5.97,15-38.8,36.51-75.49,53.4-113.47.12-1.84-.83-3.74-1.48-5.43-7.24-18.96-20.97-43.72-30.2-62.74-.66-1.35.64-2.75-2.25-2.19-.24,5.14.29,10.38.04,15.52-.58,11.6-3.05,28.78-1,39.88.4,2.17,3.14,4.17,2.81,5.89-.28,1.45-16.73,16.63-19.35,19.61-4.84,5.49-8.63,11.98-13.49,17.47l-5.97,5.51c5.01-16.51,11.08-33.16,12.97-50.46,5.51-50.31-1.47-105.46,2.02-155.82ZM617.06,146.07c8.77-13.39,15.86-27.59,23.08-41.84.35-.7.54-3.41,2.08-1.42.31.4-.17,5.85.02,7.48,3.49,31.26,11.39,61.56,16.96,92.42l-28.95-38.96c-3.25,13.72-3.28,27.57-3.97,41.5-.98,19.85-3.34,40.85,2.65,60.2,1.85,5.96,5.37,11.27,7.31,17.18,2.3.58,1.64-.46,2.27-1.26,6.91-8.76,12.85-18.84,19.71-27.7,1.35-.26,1.02.38,1.02,1.5-.06,10.75-17.78,67.68-22.98,78.94-.46.99-.58,2.35-2.02,2.47-7.71-29.27-20.73-56.9-29.53-85.86-.5-17.13-.87-34.4-.49-51.54.21-9.56,5.96-22-7.97-23.95,6.13-10.11,14.27-19.17,20.81-29.15ZM460.07,121.61c29.76,15.96,58.18,34.24,88.18,49.72l-36.94,49.91c.42,5.12,3.59,9.87,5.17,14.79l23.82,46.59c-1.76-4.95,3.09-16.64,1.89-20.3-.63-1.91-13.07-6.29-10.87-8.66,3.68-1.02,13.3-3.68,14.51-6.95,6.14-52.81,21.76-103.74,28.45-156.41.17-1.36.7-3.18,1.98-1.49,1.29,50.9,12.19,100.71,20.69,150.64,6.41,37.64,9.91,75.74,22.26,112.1l-37.81-41.68c5.4-17.89,1.59-35.41-2.16-53.23l-18.9,8.57-8.11,40.85c10.34,29.64,26.7,56.81,37,86.45l-32.77-44.64c-8.05-10.96-14.76-24.56-23.16-34.28,1.6,4.11,3.39,8.17,4.84,12.34l-23.81,28.62,14.99-44.96c2.53-.38,2.29,2.04,3.99,4-6.85-17.58-30.5-62.95-42.1-77.28-1.04-1.29-2.3-2.11-3.84-2.64.19,13.55,0,27.03-1.06,40.5,1.17,14.75,2.39,29.48,3.76,44.21.1,1.1,1.18,3.4-.7,3.2-1.35-5.4-4.34-9.99-6.28-15.21-3.83-10.31-13.49-36.62-14.61-46.33-4.29-37.2.07-75.3-3.38-112.51l-28.7-42.72,23.65,16.8ZM406.44,245.17c1.02,9.46,2.11,18.96,2.02,28.46l1.98-7.5c1.52-24.25.67-48.59.97-72.96.16-12.76,2.81-27.16,1.09-39.97-.19-1.39-.21-2.61-1.49-3.5l-10.54-6.42c.95-2.56,27.72-17.63,28.95-16.5,15.54,59.99,35.08,118.9,48.84,179.37l-15.03,24.77-6.81,13.65c6.19-31.3-4.46-62.13-9.01-92.91l-21.83,6.13-5.14,87.27-2.11,20.87-1.87,8.61c-1.42-13.05-2.7-26.26-5.32-39.14-.85-4.15-5.32-24.67-8.34-25.67-4.67-1.53-9.33,4.99-10.31,3.86l-6.99-57.94c-9.02-.26-17.95.09-26.89,1.1l-7.09,27.88c-.65.51-1.8-1.68-2.18-2.3-1.55-2.47-8.99-16.63-9.41-18.64-1.3-6.31,10.05-43.43,12.12-52.97,1.52-6.99,6.96-28.26,4.72-33.73-1-2.43-7.49-6.71-7.16-8.61l65.85-83.55c-3.48,11.19-11.61,20.82-15.45,31.98-12.22,35.48,2.38,90.37,6.46,128.36ZM285.57,83.82c1.26-1.65,1.82.1,1.99,1.48.44,3.42-.34,7.45.01,10.99,3.36,34.22,16.84,72.6,16.01,105.95-.02.84-2.34,10.65.94,7.45.69-.67,6.81-15.34,7.77-17.71,19.92-48.93,30.74-93.96,36.16-146.66.18-1.72-.19-3.28,1.54-4.45l-.47,76.46c-1.75,5.21-.97,10.98-1.41,15.78-3.08,33.56-16.61,63.4-29.52,94.11,19.65,35.26,35.18,72.58,53.02,108.72,4.77,9.67,10.64,18.7,14.83,28.61-9.76-12.85-21.74-24.04-31.93-36.49-21.15-25.84-34.05-55.58-50.47-84.39-1.34.91-1.38,2-1.54,3.46-1.73,15.99.69,34.53-2.94,50.88.87,8.46,15.76,10.33,14.96,14.07-13.13,8.21-24.18,16.81-34.47,28.48l-22.44,25.5c7.43-20.47,19.23-43.29,21.94-64.96,1.83-14.64.59-30.23.97-44.98.82-31.83,1.53-63.93,1.09-95.91-.11-8.22-2.21-18.82-2.08-26.88.2-13.13,4.45-28.67,6.02-42.02.29-2.45-.15-5.02.02-7.48ZM223.63,175.31c.51-4.92,25.75-37.16,30.38-44.63l16.56-29.88c-2.65,34.45,4.25,68.76,7.99,102.89l-24.47-37.94c-2.05-.06-6.78,26.51-7.22,29.73-3.47,25.3-5.31,45.55,3.7,69.67.73,1.96,5.46,13.93,6.03,14.46,1.61,1.51,1.74-.62,2.21-1.3,5.02-7.3,9.02-15.63,15.74-21.68-1.34,8.41-.39,17.04-1,25.46-.45,6.16-.83,14.76-2.47,20.51-2.45,8.59-10.39,18.55-14,26.95l-30.66-70.24c-5.01-24.06,1.08-49.66-.77-74.15-.27-3.52-2.34-6.91-2.04-9.86ZM182.68,92.82l12.69,43.74c16.48,52.69,19.06,108.52,33.21,161.57l-26.92,37.45c5.49-25.8,2.49-52.17-1.48-77.96-.86-1.55-3.94.37-5.2.87-3.01,1.19-13.49,5.27-14.58,7.4l-10.22,52.71c-2.4-5.88-13.64-19.32-14.45-24.53-1.44-9.33,5.22-23.72,3.96-33.7-.27-.99-15.42-9.26-17.99-9.71l22.39-9.06c1.1-.49,1.2-1.45,1.58-2.42,4.33-11.09,7.54-35.59,9.68-48.27,5.44-32.24,10.51-65.38,7.32-98.08ZM10.37,8.9c49.41,47.94,99.56,96.12,157.12,134.34l-52.78,73.85,107.9,221.38c-15.54-21.37-33.1-41.24-49.34-62.04-6.42-8.22-14.8-22.14-21.58-28.87.26,4.77-3.22,5.96-5.41,9.07-4.64,6.57-9.22,15.03-13.99,21.01-.82,1.04.04,2.52-2.58,1.88l12-45.94c1.3-1.01,7.56,13.2,8.21,13.79.52.47,1.63.06,1.76.2l-59.96-111.89c-1.1-.18-1.88.01-2.49.99-1.35,2.12-.36,42.05-.45,48.51-.24,17.21-3.42,36.6.19,53.67,2.79,13.17,11.31,12.98,22.26,13.72,1.09.07,3.32-.54,2.47,1.49-.69,1.64-13.48,14.11-15.95,17.02-21.51,25.35-41.09,52.3-57.77,81.09l-35.15,61.24,52.45-171.82c4.16-31.8,1.32-64.36,2.44-96.46.08-2.23,1-4.23,1.05-6.44l-33.98-6.5,34-18.19.96-72.7c-13.84-16.89-31.38-30.96-46.93-46.47l17.28,9.18c10.94,7.19,22.38,15.83,34.85,20.1.82.28,2.43,1.46,2.82.17-5.68-18.33-14.57-35.52-23.47-52.46C34.56,49.44,21.7,27.32,6.84,6.9l3.53,2ZM4.85,3.9l1.99,1.99c-2.09.29-2.27.1-1.99-1.99Z"/>
</svg>