<?xml version="1.0" encoding="UTF-8"?>
<svg id="Layer_1" xmlns="http://www.w3.org/2000/svg" version="1.1" viewBox="0 0 206.6 183">
  <!-- Generator: Adobe Illustrator 29.8.1, SVG Export Plug-In . SVG Version: 2.1.1 Build 2)  -->
  <defs>
    <style>
      .st0 {
        fill: #231f20;
      }

      .st0, .st1, .st2 {
        stroke: #231f20;
        stroke-miterlimit: 10;
      }

      .st1 {
        fill: #fff;
      }

      .st2 {
        fill: #d92627;
      }

      .st3 {
        fill: #d92727;
      }
    </style>
  </defs>
  <ellipse class="st0" cx="103.3" cy="91.5" rx="102.8" ry="91"/>
  <path class="st2" d="M67.28,32.17s-16.95-3.3-9.47,7.93c0,0-6.39,1.32-4.84,5.72,0,0-16.07,0-11.01,17.17,0,0-5.28,6.61-.99,13.65,0,0-4.74,5.94,1.43,9.69,0,0-5.06,10.13,4.84,15.63,0,0-4.4,12.33,7.05,8.81,0,0,0,5.94,7.93,3.3,0,0,1.76,5.1,5.06.68,0,0,5.94,5.93,8.15.42,2.2-5.5,57.69-9.69,57.69-9.69,0,0,10.57,4.62,9.47-5.28,0,0,9.91,2.64,7.27-5.72,0,0,8.37,3.08,9.91-2.86,0,0,8.59-3.96,3.52-14.09,0,0-3.08-1.98.44-4.4,0,0-2.53-4.62,1.16-4.18s4.35-1.32,1.04-7.49c0,0,1.76-5.5-1.54-5.94,0,0,9.47-3.52-2.86-7.27,0,0,2.64-6.61-5.5-7.71,0,0,3.08-10.13-7.71-9.91,0,0-2.42-6.83-11.23-5.72,0,0-23.56-9.25-29.94-1.76,0,0-24-6.39-19.38,3.08-.77-.55-4.89-3.42-10.35-2.42-7.07,1.29-9.93,7.88-10.13,8.37h-.01Z"/>
  <path class="st0" d="M148.31,50.66s-7.49,10.35-15.19-1.1c0,0-13.21-2.65-20.26,5.39s-17.39,8.92-17.39,8.92c0,0-7.93,12.33-11.45,3.52s-9.03,4.4-7.93,4.62,7.27,10.13-5.72,2.86-5.5,6.39-5.5,6.39c0,0,3.52,14.97-8.59,8.81s.88,5.06,0,5.72-9.47.88-6.61,4.84,1.76,3.96,4.84,2.64,1.1,5.72,5.5,2.2-1.32,4.18-1.32,4.18c0,0,2.86,2.64,5.06,0s1.98,2.86,1.98,2.86c0,0,6.61,2.2,9.69-1.1s60.99-10.13,60.99-10.13c0,0,2.86,2.42,3.96-2.2s8.59,3.52,6.83-6.17c0,0,18.94-2.86,13.21-7.27s1.08-4.47,1.08-4.47c0,0-5.01-8.09-1.74-8.96s-.93-7.05,1.74-7.49.68-8.59-4.16-4.84-4.18-6.61-4.18-6.61l-4.84-2.64v.03Z"/>
  <path class="st1" d="M78.95,139.17c5.15,2.91,9.79,4.12,13.24,4.65,7.41,1.14,14.96-1.5,30.07-6.77,6.83-2.38,11.28-4.31,12.62-8.45.64-1.99.37-3.9.02-5.23-.5-2.16-1-5.32-.68-9.08.47-5.6,2.46-9.1,4.18-13.43,1.59-3.98,3.4-9.76,4.18-17.39-3.82-5.27-3.89-8.08-3.08-9.69.88-1.75,2.8-2.06,3.08-3.96.24-1.63-.92-3.04-2.64-5.06-1.17-1.39-3.02-3.27-5.72-5.06-3.95-.57-6.84-1.68-8.81-2.64-2.12-1.03-3.99-2.29-5.72-1.54-.84.36-1.71,1.23-1.76,2.2-.09,1.77,2.57,2.79,2.31,3.5-.29.79-3.51-.45-7.21.05-2.78.37-2.69,1.29-8.7,4.16-5.49,2.61-6.82,2.44-8.86,4.62-1.25,1.34-.92,1.59-3.08,4.18-1.87,2.25-2.98,3.58-4.84,4.84-2.3,1.56-3.4,1.44-4.84,3.08-1.01,1.16-1.5,2.41-1.76,3.3-.81-.51-2.08-1.12-3.08-.66-1.74.8-.93,3.99-2.64,5.94-.97,1.11-3.02,2.14-7.93,1.32.72.94,1.66,2.01,2.86,3.08,1.58,1.41,3.13,2.4,4.4,3.08-.48,1.94-1.1,5.07-1.1,8.94,0,6.67,1.84,10.45,3.52,18.14.69,3.14,1.56,7.88,1.98,13.87h0Z"/>
  <path class="st0" d="M101.85,71.8s15.41-3.08,15.85-1.54,2.42,5.28-3.08,4.4c0,0-8.44,7.49-8.73,8.59s-.29-3.08-10.42-4.84v-2.86l6.39-3.74h-.01Z"/>
  <path class="st0" d="M134.44,68.86c-1.54-.15-5.5,1.17-5.72,3.15s8.59,11.41,8.59,11.41c0,0,5.72-11.85,1.54-12.29s-4.4-2.27-4.4-2.27h0Z"/>
  <path class="st0" d="M128.71,79.06c-1.76.92-10.3,8.15-10.3,8.15,0,0,1.49,3.74,8.76,2.42,0,0,0,3.08,3.96,1.32,3.96-1.76,4.84-2.86,2.42-6.61s-2.89-6.3-4.85-5.28h.01Z"/>
  <path class="st2" d="M128.71,86.99s9.24-6.75,0-5.79-7.48,2.37-7.26,3.97,7.26,1.82,7.26,1.82Z"/>
  <path class="st0" d="M132.82,94.7c1.62,0-18.42-3.2-18.42-3.2-5.94.32-5.94-3.19-5.94-3.19l-8.37,3.19c-.04,1.95.16,5.91,2.64,9.8,3.77,5.92,10.06,7.43,11.23,7.71.5.12-.04-.03,7.21.66,4.13.4,8.86.88,8.86.88h0c2.64-3.42,5.51-7.95,7.71-13.65.73-1.88,1.3-3.69,1.76-5.4-2.23,1.07-4.46,2.13-6.68,3.2Z"/>
  <path class="st2" d="M103.65,94.48l5.86-4.14,23.3,4.36s-12.04-.22-13.02,2.86c-.99,3.08,10.9,3.74-4.95,4.62s10.57,4.98,10.57,4.98c0,0,2.97,3.17-4.24,2.51s-20.13-1.1-17.52-15.19Z"/>
  <path class="st1" d="M137.3,119.36s24.88,1.32,26.42,8.15c1.54,6.83-5.5,16.95-14.09,14.75,0,0,4.18,5.72-4.4,9.47,0,.92-.14,2.73-1.32,4.4-.56.79-1.48,1.74-3.53,2.64-5.53,2.44-8.45-.2-11.66,2.2-1.98,1.48-1.72,2.99-3.77,3.85-1.15.48-2.73.48-5.15-.54-6.27-2.64-10.46,3.96-11.56,4.18-1.1.22-9.47-2.64-10.35-1.76s-6.61-7.71-12.55-3.74c-5.94,3.96,2.42-9.25,2.42-9.25l.44-7.05s9.69,1.32,12.77-.22c3.08-1.54,10.57-3.73,13.65-2.53,0,0,12.76-5.18,14.09-8.48s10.18-4.17,8.59-16.07Z"/>
  <path class="st1" d="M60.01,121.78s2.1,2.87-2.42,6.39c-1.98,1.54-18.44,12.99-18.36,14.09.08,1.1-10.71,3.74,6.25,4.84,0,0,6.39-3.74,9.47,0,0,0,2.42,1.32,2.64,3.96s2.64,8.81,4.4,8.37,3.3.22,6.83-2.86c3.52-3.08,4.4,2.88,4.4,2.88,0,0,6.17,3.5,7.93-.9,0,0-1.4-4.84,2.05-6.83,3.45-1.98,2.79-5.28,2.79-5.28,0,0-7.71-1.98-7.71-3.74s-6.17,2.2-2.42-6.83-1.1-7.05-1.32-7.71-.22-5.28-.22-5.28c0,0-14.31-1.1-14.31-1.1Z"/>
  <path class="st3" d="M158.25,125.27s-6.52-1.54-7.32-1.14c-.84.42-1.67,13.26-6.54,15.62l3.73-.02s4.02-3.67,4.93-5.61c.91-1.94.76,3.61-2.14,4.99l4.46-.21s4.81-3.36,2.15-6.86c0,0,4.62.36.73-6.77ZM154.69,130.75c-1.57-.67.19-3.73.29-3.75h0s2.09.85,2.1,1c.01.15-.82,3.42-2.39,2.75Z"/>
</svg>