<?xml version="1.0" encoding="UTF-8"?>
<svg id="Layer_1" xmlns="http://www.w3.org/2000/svg" version="1.1" viewBox="0 0 1284.68 308.14">
  <!-- Generator: Adobe Illustrator 29.8.1, SVG Export Plug-In . SVG Version: 2.1.1 Build 2)  -->
  <defs>
    <style>
      .st0 {
        fill: #2b292a;
      }
    </style>
  </defs>
  <g id="sNI5UH">
    <g>
      <path class="st0" d="M1116.54.54c129.93-10.45,214.76,133.81,140.42,241.42-52.21,75.59-155.38,87.02-226.68,31.24l-986.03.03c-22.32-1.96-40.45-18.73-44.26-40.74V76c4.06-22.67,22.95-39.82,46.2-40.81l984.09.09c25.92-18.13,53.81-32.13,86.26-34.74ZM1008.74,59.24H42.24c-.61,0-7.77,3.45-8.83,4.17-7.35,4.94-9.85,12.9-10.65,21.35,2.17,44.86-2.94,92.5-.06,137.03.57,8.79,2.63,17.39,10.11,22.89,1.12.82,8.68,4.57,9.43,4.57h966.5c-43.43-54.6-43.43-135.4,0-190ZM1106.54,61.53c-66.68,6.32-89.17,93.62-33.7,132.12,25.27,17.54,57.75,15.74,83.27-.25l43.69,43.29c12.76,7.84,24.81-4.76,16.38-17.38l-43.2-43.56c35.06-50.9-4.6-120.08-66.44-114.22Z"/>
      <path class="st0" d="M1105.5,85.49c43.99-5.61,73.92,41.55,47.48,77.48-28.53,38.75-91.22,15.92-88.21-32.22,1.35-21.63,18.96-42.48,40.74-45.26Z"/>
    </g>
  </g>
</svg>