<?xml version="1.0" encoding="UTF-8"?>
<svg id="Layer_1" xmlns="http://www.w3.org/2000/svg" version="1.1" viewBox="0 0 595.28 841.89">
  <!-- Generator: Adobe Illustrator 29.8.1, SVG Export Plug-In . SVG Version: 2.1.1 Build 2)  -->
  <defs>
    <style>
      .st0 {
        fill: #f7901e;
      }
    </style>
  </defs>
  <path class="st0" d="M301.03,194.17l.05,7.37c8.32-.11,18.26-7.36,25.4-7.22,1.49.03,25.91,4.57,28.97,5.29,181.32,43.06,233.17,293.18,78.8,399.36-1.86,1.28-2.57,6.01-4.55,6.53-3.75.97-10.25-9.04-15.86-7.32,10.2,16.36-3.18,19.32-17.11,25.77-3.54,1.64-8.05.26-11.66,1.86-1.93.85-9.58,14.82-14.13,1.73-9.46,16.77-6.26,1.59-13.49-7.3,34.5-8.1,22.62-45.19-9.71-29.29-2.76,3.79,11.29,25.65,4.78,31.68-4.01,3.71-7.95-13.02-17.12-4.9l7.34-12.22-9.82-4.88,9.8-7.36-19.61,2.45c.18,13.11,10.19,27.98,0,39.13,7.82,2.09,6.75-9.25,7.38-9.8,1.08-.96,4.66,2.13,6.17,2.18.48.02,3.92-8.82,8.51-4.58,1,.92-4.36,12.06-2.43,14.68.57.77,8.78-4.59,9.79,2.41-4.21.31-8.9,3.79-13.19,2.32-5.06-1.73-.29-10.1-13.81-4.73-.59.54,8.08,10.72-5.77,7.37-2.78-.67.01-5.99-3.99-4.92,3.92,10.17-13.09,10.96-12.32,2.46h-2.39c1.22,9.35-4.91.96-11.38.75-3.42-.11-24.82,2.8-25.41,1.67,5.28-11.45-2.86-13.91-3.44-4.86-.26,4.11-.35,3.13-7.62,2.43-27.43-2.66-107.65-41.9-120.1-66.18-3.75-7.32,3.25-12.28-8.36-7.38-21.69-29.24-38.51-58-47.19-93.85-5.41-22.37-11.69-66.51-4.53-87.96,1.07-3.21,5.97-.17,4.83-4.14-.93-.57-4.64.95-4.68-1.04-.16-8.44,12.41-44.87,16.51-54.52,1.66-3.9,14.16-28.95,15.5-29.98.86-.66,5.79,1.64,8.97.66,5.05-1.54,7.6-5.94,12.75-5.71-14.75,10.03,14.58,28.16,20.8,26.91,11.82-2.38-13.37-15.45-14.52-17.28-2.05-3.27-1.54-8.42-3.82-12.08,6.74-1.08,24.12,19.45,25.75,19.51,8.24.32-1.09-12.45-3.68-14.62,16.59,4.31,18.94,3.73,12.28-12.26,7.43,9.96,18.15,5.74,9.21-3.21-17.56-17.57-29.38-19.84-16.6,8.09-8.34,1.14-15.15-8.16-22.03-1.61-14.16-.4-5.86-5.47,1.01-9.7,2.48-1.53,6.05-.71,6.31-.94,3.71-3.2-10.88-8.91-7.11-14.34l40.15-32.22c16.13-10.41,28.28-14.01,46.17-19.58,2.51-.78,1.49-9.39,6.63-3.58-3.1,5.2-.39,8.87,4.87,10.97.6-3.06-.78-13.85.03-14.68.69-.7,6.09,1.4,8.66,1.14,1.89-.19,3.36-2.63,6.17-2.42,6.57.48,16.14,3.45,15.8,11.06,2.99-3.4,9.02-4.38,8.63-9.76,4.02-1.26,1.35,4.29,3.62,4.94,6.84,1.95,5.99-4.09,6.55-4.32,1.77-.71,5.25,2.84,9.42.79,4.93-2.43,2.78-10.92,9.8-8.78ZM298.6,208.88c-28.93-4.17-17.93,12.69-17.17,31.83l17.16-2.49c2.51-8.97-9.95-2.57-9.84-6.12.18-5.75,5.76-6.02,9.83-6.13,2.74-9.58-12.1-.75-9.82-8.51,1.08-3.67,13.45,3.43,9.84-8.58ZM334.87,232.95c.7-1.05-1.82-15.54-4.4-17.96-2.62-2.45-20.93-7.28-22.06-6.13l-2.47,31.85c7.91,1.56,24.42-.94,28.93-7.76ZM258.95,216.64c-5.14-3.15-20.19,1.58-26.57,2.04,3.06,9.33,7.52,19.48,4.92,29.33,11.21-1.11,27.87-3.69,26.93-18.16-.12-1.84-4.62-12.81-5.28-13.21ZM352.52,216.22c-7.78-7.7-19.28,25.9-10.98,29.34,1.46.61,11-8.08,11.05-8.78.13-1.8-2.43-5.49-2.33-9.29.06-2.51,3.58-9.97,2.27-11.27ZM381.95,226.04c-.83-.82-18.61-5.86-22.05-7.37-2.96,7.66,5.58,6.37,4.98,10.79-1.33,9.76-15.09,20.68-.15,23.47,1.49-3.39,6.81-21.07,7.77-21.72,1.07-.73,15.42.72,9.46-5.18ZM225.02,223.57l-17.35,6.45c-.89,4.18,9.19,27.58,11.21,27.72,2.35-3.17,15.82-5.42,15.91-8.48.18-5.92-12.32.94-14.65-4.91,18.33-14.08-1.8-5.26-2.44-6.11-5.04-6.76,8.85-8.37,7.32-14.68ZM396.68,233.36c-.25-.29-5.41-.75-7.3-2.46,2,5.2-18.63,27.47-8.6,29.37,5.55,1.05,16.95-25.7,15.91-26.91ZM200.5,235.81c-3.32-3.07-19.05,8.02-22.04,11.03-1.13,7.75,6.84.56,9.91,2.38,4.59,2.72,8.89,17.78,9.73,18.4,1.79,1.34,6.88-1.81,7.3-3.79.96-4.58-9-12.69-9.44-17.42-.39-4.16,5.83-5.79,4.55-10.6ZM420.57,271.87c14.37-13.58-3.73-35.82-20.4-24.01-17.56,12.43,6.06,37.56,20.4,24.01ZM180.94,279.85l7.28-6.04c-3.89-2.82-15.34-20.72-18.36-20.83-12.23-.44,12.3,23.87,11.08,26.87ZM427.62,317.49c-65.19-84.99-203.35-80.17-263.43,8.12-64.05,94.11-18.89,216.16,85.48,249.52,9.07,2.9,27.2,3.4,24.42,13.22,6.76-11.38,14.54-4.1,28.15-4.92,23.79-1.43,54.38-8.82,75.39-20.2,11.98-6.48,20.83-18.24,35.39-20.44,4.35-.66,10.19,2.02,15.5-.95-4.18,33.44,41.01,26.08,26.99-4.88,12.64,3.64,20.09-5.03,31.87-.05-1.04-18.32-13.69.2-24.5-9.8,2.26-4.77,13.55-2.3,18.01-4.86,9.09-5.23-17.84-20.29-21.54-19.51-2.11.44-5.19,5.45-3.83,7.24.44.59,12.17,1.99,12.25,7.35-4.56.38-20.83-1.96-22.05,3.73-.72,3.34,19.83,15.72,8.58,15.82-.98,0-5.95-5.32-12.1-4.85s-18.59,10.66-28.36,7.34l31.57-48.03c26.17-54.93,19.35-125.43-17.8-173.86ZM440.83,287.21c-.95-4.85,6.16-20.4-1.29-22.02-4.23-.92-29.29,24.54-17.13,24.42,1.52-.01,7.56-9.41,11.01-9.74,1.79,4.56-5.94,20.47,1.29,22.02,4.25.91,29.28-24.54,17.13-24.42-1.52.01-7.56,9.41-11.01,9.74ZM136.23,328.16c-7.94,4.06-23.1-12.62-23.97-11.57-7,10.04,11.41,19.1,19.55,21.06,8.01,1.93,18.6-18.06,6.15-13.77-.85.29-1.04,3.93-1.74,4.28ZM489.87,331.29l-17.18-4.9c2.21,9.76-2.3,8.95-7.36,14.65,7.09.62,10.05,5.45,9.83,12.26,4.14.55,2.42-6.15,6.36-7.28,2.99-.86,7.68,3.11,8.3,2.4-3.02-3.91.7-16.57.05-17.12ZM107.81,379.72c-1.43-.82-2.33-6.71-4.16-6.78-.44-.02-4.09,4.52-6.44,5.91-6.22,3.67-6.57-1.66-7.06,9.92l4.9-1.19-2.41,9.81c7.63-4.68,9.93-6.45,17.12,0-1.46-8.25,3.15-11.35,7.38-17.11-2.95-.21-6.74.94-9.32-.55ZM495.22,389.52c-1.59-.93-1.7-6.91-5.34-6.82.56,9.32-3.75,10.6-12.29,9.81,5.76,7.5,12.64,5.53,7.36,17.1,7.35-1,9.02-7.92,17.14-2.43-2.75-9.2-.74-10.4,4.92-17.11-3.58-.45-8.78,1.21-11.79-.54ZM104.83,431.68c-5.43-4.94-4.21,6.06-6.27,7.59-1.73,1.28-5.98,1.71-8.39,2.22,3.84,5.93,8.47,6.68,4.91,14.65,6.51-1.42,10.85-3.93,17.13.01-1.6-3.66,3.12-16.51,2.47-17.08-.45-.4-4.83.31-7.26-1.36-2.56-1.75-2.18-5.65-2.59-6.02ZM494.74,441.46c-3.32-3.8-8.48,12.03-17.15,7.37,5.66,6.71,7.68,7.91,4.93,17.11,4.14-4.99,16.54.68,17.13.02.26-.29-.2-5.32.69-7.83.99-2.81,4.19-5.3,4.19-5.65-.02-2.9-8.05-2.91-9.29-4.29-1.5-1.66.01-6.16-.48-6.72ZM129.38,490.42c-6.77,6.18-12.53-2.38-13.47-2.41s-6.89,13.54-11.03,14.62c7.56-.53,10.36,2.17,9.83,9.82,3.01-4.9,14.1-4.4,14.71-4.91.66-.55-3.07-13.23-.05-17.12ZM139.22,554.12c-2.91,4.11,17.6,23.06,13.3,7.35-.38-1.4-3.6-2.29-2.45-4.94,2.27-5.24,17.12-11.04,16.1-15.89-2.77-13.17-21.39,15.61-26.94,13.47ZM166.13,578.54c-1.22-2.99,23.31-27.31,11.08-26.87-3.02.11-14.47,18.01-18.36,20.83l7.28,6.04ZM432.68,567.07c-.38-.53-8.12-7.74-9.45-8.91-2.11-1.85-6.1-7.34-9.38-4.07-4.02,4.01,16.13,26.78,18.38,26.87,5.01.19,2.51-11.05.46-13.89ZM192.89,564.16c-.2-.31-5.7-2.47-7.11-1.66-1.67.95-15.81,24.65-14.68,25.85.26.27,6.62,2.05,7.4,1.36,2.23-1.98,1.07-6.91,4.82-6.23l.04,12.22c21.96-6.01,3.32,2.01,15.89,7.35,18.6-19.88,21.83-40.98-8.53-17.13-.98-1.21,5.41-16.73,2.17-21.75ZM410.89,568.4c.72-1.07,1.07-1.98.47-3.27-3.6-9.81-24.68,10.24-22.03,13.41,6.98.76,5.75,5.1,8.55-2.42,4.98,1.78,11.93,23.24,18.39,17.12,3.74-3.55-9.31-16.06-9.9-20.88-.58-4.74,3.93-3.1,4.51-3.96ZM396.65,583.46c-.77-.8-4.03,2.41-5.86,2.02-5.03-1.08-3.28-12.6-13.74-6.89l13.52,26.9c12.57-2.67.8-10.5,1.07-15.89.05-.9,9.34-1.65,5.01-6.13ZM217.33,610.03c.89-.62,7.39-17.24,8.22-19.99,1.07-3.56,3.52-6.88-1.79-9-4.31-1.72-4.37,3.74-5.64,6.44-1.4,2.98-14.93,32.38-.79,22.56ZM254.46,598.12c5.29-5.1-19.72-14.04-24.52-9.74,13.44,6.14.97,27.49,2.48,29.22.25.29,6.98,2.82,7.29,2.58,3.14-2.43,1.82-25.62,14.76-22.06ZM264.28,612.84c.52-.47,12.39,4.84,12.2-1.23-.02-.75-4.17-3.01-4.22-4.9-.03-1.12,15.01-13.26-1.92-15.93-1.23-.19-.58,4.1-3,4.88-2.26.72-6.62-.74-7.77.23-1.07.9-3.68,24.59-2.81,27.69.68,2.41,16.45,4.81,17.29,3.94,7.28-7.55-15.53-9.45-9.78-14.67ZM307.54,601.48c-5.01-4.16-20.71-6.1-23.67-3.34-1.08,1-1.05,28.36,0,29.39.94.93,11.88-.92,15.46-.07,3.06.73,2.66,7.21,6.6,7.4-3.4-6.44-.58-14.09,6.16-17.12.6-.27,5.7,12.33,11.02,7.31,1.29-1.21-6.09-5.94-4.91-7.3.78-.9,5.86,2.01,4.89-2.44l-12.25-4.9c6.14-.95,13.84,7.06,12.25-2.46-9.65,2.57-7.07-11.5-11.02-.02-2-.98-2.71-4.93-4.55-6.45Z"/>
  <path class="st0" d="M369.63,607.88c-5.11.32-5.7,4.61-9.46-1.41-10.2-16.35,12.19-17.69,9.46,1.41Z"/>
  <path class="st0" d="M271.6,341.06l9.81,73.45c-2.87-.5-10.99.97-12.12-.12-2.06-1.98-1.78-24.94-3.79-29.24-7.56,4.47-1.58,29.81-3.68,31.83-15.76,2.09-11.01-1.79-15.3-12.89l-9.2-18.93,4.87,34.25c-2.87-.51-10.99.97-12.12-.12-3.06-2.94-5.27-61.77-9.95-70.84,5.11.44,12.51-4.74,17.29-1.42,2.81,1.95,9.92,28.96,11.89,34.83,1.28,3.8-2.16,7,5.15,5.73-.12-6.41.06-41.05,2.69-43.84.5-.53,11.73-1.44,14.47-2.68Z"/>
  <path class="st0" d="M421.17,412.1c2.12,2.16,2.97,48.09,7.16,55.26-7.43,1.55-6.74,7.24.23,4.7,5.61,8.9-8.7,15.9-12.12,13.42-3.13-2.27-10.25-32.73-17.29-36.67-2.08,7.87,7.87,37.02,1.03,38.99-1.69.49-7.57.64-8.29.06-2.84-2.32-6.22-60.72-9.65-69.48,20.56-17.07,18.64,23.4,31.57,32.86l-4.88-39.16c2.75.43,11.46-.78,12.24.01Z"/>
  <path class="st0" d="M222.56,507.57l-7.52-69.55c11.51-6.28,31.13-6.92,36.38,7.69,2.13,5.94,6.27,41.97,4.98,47.84-3.32,15.03-22.01,14.62-33.83,14.02ZM239.62,446.46c-1.75-1.42-10.89-.39-11.52,3.45-.37,2.26,4.84,44.16,6.78,45.39,16.18,10.23,6.92-47.07,4.74-48.84Z"/>
  <path class="st0" d="M408.21,331.96c4.54,5.64,9.82,48.63,7.6,56.34-2.91,10.09-21.02,13.7-29.77,11.61-5.89-1.4-7.23-61.42-11.45-71.07,10.17-.81,25.88-6.49,33.62,3.12ZM398.76,338.99c-2.21-1.31-6.58.03-9.43-.37.65,6.44,3.17,47.25,4.94,48.96.3.29,6.87.47,8.27.14,5.55-1.32-1.64-47.46-3.78-48.73Z"/>
  <path class="st0" d="M345.86,422.55c8.54-8.52,26.52-4.74,30.13,6.5,1.41,4.38,6.34,43.39,5.95,47.68-1.3,14.55-22.5,21.72-31.94,10.09-3.68-4.53-9.65-44.42-9.39-51.6.1-2.8,3.37-10.8,5.25-12.67ZM356.25,429.23c-6.55,1.31-.48,39.2,1.33,45.14,3.04,10.03,10.28,5.8,11.72-.35,1.19-5.09-3.92-46.62-13.05-44.79Z"/>
  <path class="st0" d="M210.33,448.79c-.71.72-18.79.01-19.81,3.91.05,15.3,2.08,17.59,17.36,15.67v12.27c-18.04-3-11.37,5.31-12.27,19.58l22.05-2.46c-.41,2.7.7,11.6.02,12.25-1.15,1.11-27.55,2.06-31.86,2.41,1.14-11.94-11.21-63.88-7.03-70.62.74-1.2,26.28-5.29,27.65-4.97,4.22.96,5.04,10.79,3.89,11.96Z"/>
  <path class="st0" d="M372.15,341.05c-1.01.8-18.61,1.72-19.47,2.6-1.02,1.05-.99,16.13,2.25,18.39,1.76,1.23,11.01-2.91,14.77-1.39,1.59,18.04-1.06,9.64-10.61,12.62-6.24,1.95-2.27,18.37-1.53,19.09,5.21,5.03,24.28-11.91,21.97,9.91-7.52-1.19-25.7,5.71-31.53,2.1-3.58-2.21-6.28-61.61-10.18-70.63l31.87-4.93c-1.68,3.42,2.96,11.84,2.47,12.23Z"/>
  <path class="st0" d="M313.32,436.54c-.64.63-10.65-1.47-11.65,3.57.41,9.39,9.56,52.22,6.35,57.25-2.1,3.3-10.45,4.51-11.85-3.31-3.03-16.92-3.49-37.71-4.92-55.06-11.81,1.11-11.96,1.22-14.75-9.75.94-1.36,31.11-5.25,32.78-4.74,4.43,1.36,5.29,10.83,4.04,12.04Z"/>
  <path class="st0" d="M332.9,333.74c3.61,18.83-7.32,9.86-9.82,12.22s5.72,52.35,6.76,60.11c-.67,3.88-9.81,4.85-11.52,3.45-2.39-1.95-6.44-53.13-7.49-61.09l-12.23,2.44c-5.34-20.75,20.96-12.17,34.3-17.12Z"/>
  <path class="st0" d="M178.41,353.31l7.4,61.22,19.61-2.47v12.27c-5.89-2.44-26.39,4.65-29.24,2.23-3.17-2.68-6.12-60.39-9.72-69.38,2.22-4.91,7.19-4.05,11.96-3.87Z"/>
  <path class="st0" d="M222.59,421.86l-12.28.02c.7-20.02-7.36-43.11-7.56-62.46-.04-4.28-.18-8.29,3.92-10.98l8.17,4.04,7.76,69.38Z"/>
  <path class="st0" d="M269.13,429.22c3.14,1.98,7.27,64.39,9.85,73.43-2.75-.43-11.46.78-12.24-.01-2.29-2.34-8.07-60.15-7.57-64.92.52-4.93,3.96-12.29,9.96-8.5Z"/>
  <path class="st0" d="M330.44,421.86c2.88,2.33,6.57,64.21,9.82,73.44-14.36,1.97-12.48-1.14-14.4-13.75-1.33-8.77-7.49-55.23-2.89-58.6,1.64-1.2,6.58-1.81,7.47-1.09Z"/>
  <path class="st0" d="M291.22,338.63l7.36,73.46c-2.99-.61-7.92,1.83-9.89-1.59-6.98-12.13-2.98-52.82-9.77-68.08l12.29-3.78Z"/>
  <path class="st0" d="M436.11,542.05c4.75-6.71,20.06,2.43,13.37,12.12-5.83,8.45-17.78-5.89-13.37-12.12Z"/>
  <path class="st0" d="M278.98,314.12c-.95-.87,2.39-6.25,2.28-8.71-.17-3.77-12.07-15.63,3.35-10.37,14.52,4.95.39,24.57-5.63,19.08Z"/>
  <path class="st0" d="M283.88,529.62c-8.82,11.04.34,9.51,2.44,19.55-16.25,2.93-21.24-19.67-2.44-19.55Z"/>
  <path class="st0" d="M261.82,316.57c-.79-.7,6.06-14.7-2.46-19.54,25.04-3.38,10.53,26.68,2.46,19.54Z"/>
  <path class="st0" d="M313.31,309.23c-.95-.87,2.39-6.25,2.28-8.71-.13-2.95-11.76-18.87,3.96-8.54,13.06,8.58-1.75,21.34-6.24,17.25Z"/>
  <path class="st0" d="M296.14,311.68c-.95-.87,2.39-6.25,2.28-8.71-.13-2.95-11.76-18.87,3.96-8.54,13.06,8.58-1.75,21.34-6.24,17.25Z"/>
  <path class="st0" d="M318.2,524.72c-6.94,9.87-4.66,11.33,2.45,19.54-19.29,1.38-21.86-17.93-2.45-19.54Z"/>
  <path class="st0" d="M244.66,319.03c-1.63-1.51,9.22-13.72-2.46-19.55,25.27-3.29,10.24,26.77,2.46,19.55Z"/>
  <path class="st0" d="M301.04,527.17c-7.1,9.28-3.25,10.42-.01,19.55-18.05-.44-17.44-18.74.01-19.55Z"/>
  <path class="st0" d="M335.37,522.27c-6.94,9.88-4.66,11.33,2.45,19.54-19.57,1.34-20.97-17.34-2.45-19.54Z"/>
  <path class="st0" d="M350.07,519.81c-2.79,10.2-2.11,12.01,4.92,19.55-17.46,1.01-21.88-13.63-4.92-19.55Z"/>
  <path class="st0" d="M301.03,605.51v14.66l-9.79.03c.33-11.45-4.05-16.93,9.79-14.68Z"/>
  <path class="st0" d="M244.66,238.26c-1.33-1.31-6.19-22.82,7.46-13.6,8.02,5.42-2.56,18.44-7.46,13.6Z"/>
  <path class="st0" d="M325.41,218.94c3.58,5.11-2.83,18.11-12.1,14.39l2.46-17.11c.7-.79,9.27,2.19,9.64,2.72Z"/>
  <path class="st0" d="M416.01,253.2c2.34,1.36,1.94,9.63-.85,11.98-16.76,14.08-16.99-22.38.85-11.98Z"/>
</svg>